<svg width="23" height="23" viewBox="0 0 53 49" fill="none" xmlns="http://www.w3.org/2000/svg">
<g clip-path="url(#clip0_8_255)">
<path d="M27.1625 46.1417C26.9417 46.1417 26.7208 46.1417 26.5 46.1417C26.0583 46.1417 25.8375 45.9375 25.3958 45.5292L11.2625 32.0542C10.3792 31.2375 10.3792 30.0125 11.2625 29.1959C12.1458 28.3792 13.4708 28.3792 14.3542 29.1959L26.9417 41.2417L43.9458 25.1125C45.2708 23.8875 46.1542 22.4584 46.5958 21.0292C47.9208 17.15 46.8167 13.2709 43.9458 10.4125C42.6208 8.98337 40.6333 8.16671 38.425 8.16671C35.3333 8.16671 31.8 9.80004 28.7083 12.6584C28.2667 13.0667 27.825 13.2709 27.1625 13.2709C26.5 13.2709 26.0583 13.0667 25.6167 12.6584C22.525 9.80004 18.9917 8.16671 15.6792 8.16671C13.4708 8.16671 11.7042 8.98337 9.93751 10.4125C7.28751 12.8625 6.18335 16.5375 7.06668 20.2125C7.50835 21.4375 6.62501 22.4584 5.52085 22.6625C4.41668 22.8667 3.09168 22.2542 2.87085 21.2334C1.54585 16.3334 3.09168 11.2292 7.06668 7.55421C9.49585 5.30837 12.3667 4.08337 15.6792 4.08337C19.4333 4.08337 23.4083 5.71671 26.9417 8.57504C30.6958 5.71671 34.6708 4.08337 38.425 4.08337C41.7375 4.08337 44.8292 5.30837 47.2583 7.55421C51.4542 11.4334 52.7792 16.9459 51.0125 22.2542C50.35 24.2959 49.025 26.3375 47.2583 27.9709L28.7083 45.5292C28.2667 45.9375 27.825 46.1417 27.1625 46.1417Z" fill="#1678F2"/>
<path d="M26.7209 33.8917C25.6167 33.8917 24.9542 33.2792 24.5125 32.4626L21.8625 24.5001L21.2 26.5417C20.9792 27.3584 20.0959 27.9709 18.9917 27.9709H4.41671C3.09171 27.9709 2.20837 27.1542 2.20837 25.9292C2.20837 24.7042 3.09171 23.8876 4.41671 23.8876H17.4459L19.4334 16.9459C19.875 16.1292 20.7584 15.5167 21.6417 15.5167C22.525 15.5167 23.4084 16.1292 23.85 16.9459L26.9417 25.9292L29.8125 19.1917C30.2542 18.3751 30.9167 17.9667 31.8 17.9667C32.6834 17.9667 33.5667 18.5792 33.7875 19.1917L35.775 23.8876H38.8667C40.1917 23.8876 41.075 24.7042 41.075 25.9292C41.075 27.1542 40.1917 27.9709 38.8667 27.9709H34.2292C33.3459 27.9709 32.4625 27.3584 32.2417 26.7459L31.8 25.5209L28.7084 32.6667C28.4875 33.4834 27.6042 33.8917 26.7209 33.8917Z" fill="#1678F2"/>
</g>
<defs>
<clipPath id="clip0_8_255">
<rect width="49.6875" height="42.0583" fill="white" transform="translate(2.20837 4.08337)"/>
</clipPath>
</defs>
</svg>
