<svg width="142" height="86" viewBox="0 0 142 86" fill="none" xmlns="http://www.w3.org/2000/svg">
<g id="Apple">
<g id="Rectangle 5" filter="url(#filter0_d_8_102)">
<rect x="13.1035" y="3.27414" width="115.438" height="59.1987" rx="9.86646" fill="white"/>
</g>
<path id="Shape" d="M70.8923 24.3191C72.1418 24.3191 73.708 23.411 74.6407 22.2003C75.4855 21.1031 76.1014 19.5708 76.1014 18.0384C76.1014 17.8303 76.0838 17.6223 76.0486 17.452C74.6583 17.5087 72.9865 18.4546 71.9834 19.7221C71.1915 20.6869 70.4699 22.2003 70.4699 23.7515C70.4699 23.9785 70.5051 24.2056 70.5227 24.2812C70.6107 24.3001 70.7515 24.3191 70.8923 24.3191ZM66.4927 47.2093C68.1997 47.2093 68.9565 45.9797 71.0859 45.9797C73.2505 45.9797 73.7256 47.1715 75.6263 47.1715C77.4917 47.1715 78.7412 45.3175 79.9203 43.5015C81.2402 41.4205 81.7857 39.3774 81.8209 39.2829C81.6977 39.245 78.1252 37.6749 78.1252 33.2671C78.1252 29.4457 80.941 27.7242 81.0994 27.5918C79.2339 24.7163 76.4006 24.6407 75.6263 24.6407C73.532 24.6407 71.825 26.0027 70.7515 26.0027C69.59 26.0027 68.0589 24.7163 66.2463 24.7163C62.797 24.7163 59.2949 27.781 59.2949 33.5697C59.2949 37.1641 60.5972 40.9665 62.1987 43.4258C63.5713 45.5067 64.768 47.2093 66.4927 47.2093Z" fill="#000100"/>
</g>
</svg>
