<svg width="116" height="60" viewBox="0 0 116 60" fill="none" xmlns="http://www.w3.org/2000/svg">
<g id="Facebook">
<rect id="Rectangle 7" x="0.700354" y="0.767462" width="114.451" height="58.2121" rx="9.37313" fill="#F6F6F6" stroke="#DDDFDD" stroke-width="0.986646"/>
<path id="Shape" fill-rule="evenodd" clip-rule="evenodd" d="M71.7233 29.4216C71.7233 21.1541 65.5831 14.452 58.0089 14.452C50.4346 14.452 44.2944 21.1541 44.2944 29.4216C44.2944 36.8933 49.3096 43.0863 55.866 44.2093V33.7487H52.3838V29.4216H55.866V26.1236C55.866 22.3718 57.9135 20.2995 61.0461 20.2995C62.5466 20.2995 64.1161 20.5919 64.1161 20.5919V24.2758H62.3867C60.6831 24.2758 60.1517 25.4297 60.1517 26.6135V29.4216H63.9554L63.3473 33.7487H60.1517V44.2093C66.7081 43.0863 71.7233 36.8933 71.7233 29.4216Z" fill="#1778F2"/>
</g>
</svg>
