<svg width="116" height="60" viewBox="0 0 116 60" fill="none" xmlns="http://www.w3.org/2000/svg">
<g id="Google">
<rect id="Rectangle 6" x="0.493323" y="0.767462" width="114.451" height="58.2121" rx="9.37313" fill="#F6F6F6" stroke="#DDDFDD" stroke-width="0.986646"/>
<g id="Wrapper">
<path id="Shape" fill-rule="evenodd" clip-rule="evenodd" d="M71.1694 29.6689C71.1694 28.6138 71.0821 27.5994 70.9201 26.6255H58.0063V32.3809H65.3856C65.0678 34.2407 64.1017 35.8165 62.6496 36.8715V40.6047H67.0809C69.6736 38.0145 71.1694 34.2001 71.1694 29.6689Z" fill="#4285F4"/>
<path id="Shape_2" fill-rule="evenodd" clip-rule="evenodd" d="M58.0065 44.2093C61.7086 44.2093 64.8124 42.877 67.081 40.6046L62.6497 36.8715C61.4219 37.7642 59.8513 38.2917 58.0065 38.2917C54.4353 38.2917 51.4125 35.6744 50.3343 32.1576H45.7534V36.0125C48.0096 40.8752 52.6466 44.2093 58.0065 44.2093Z" fill="#34A853"/>
<path id="Shape_3" fill-rule="evenodd" clip-rule="evenodd" d="M50.3342 32.1577C50.06 31.2649 49.9042 30.3113 49.9042 29.3307C49.9042 28.3501 50.06 27.3965 50.3342 26.5038V22.6488H45.7533C44.8247 24.6575 44.2949 26.9298 44.2949 29.3307C44.2949 31.7316 44.8247 34.004 45.7533 36.0126L50.3342 32.1577Z" fill="#FBBC05"/>
<path id="Shape_4" fill-rule="evenodd" clip-rule="evenodd" d="M58.0065 20.3697C60.0196 20.3697 61.827 21.1204 63.248 22.5947L67.1807 18.3272C64.8061 15.9264 61.7024 14.452 58.0065 14.452C52.6466 14.452 48.0096 17.7862 45.7534 22.6488L50.3343 26.5037C51.4125 22.987 54.4353 20.3697 58.0065 20.3697Z" fill="#EA4335"/>
</g>
</g>
</svg>
